# xmcd
#
# Track frame offsets:
#	150
#	13667
#	25555
#	35417
#	49030
#	61712
#	73537
#	84775
#
# Disc length: 1298 seconds
#
# Revision: 0
# Processed by: cddbd v1.4PL0 Copyright (c) Steve Scherf et al.
# Submitted via: dBpowerAMP V4.0
#
DISCID=51051008
DTITLE=Champion Jack Dupree - Walking The Blues
DYEAR=1900
DGENRE=Blues
TTITLE0=Walking The Blues
TTITLE1=Big Leg Emma's
TTITLE2=Let The Doorbell Ring
TTITLE3=Silent Partner
TTITLE4=Ain't No Meat On The Bone
TTITLE5=Blues For Everybody
TTITLE6=Mail Order Woman
TTITLE7=Blues Got Me Rockin'
EXTD=Collection of greatest hits by Champion Jack Dupree.
EXTT0=
EXTT1=
EXTT2=
EXTT3=
EXTT4=
EXTT5=
EXTT6=
EXTT7=
PLAYORDER=
